<?xml version="1.0" encoding="utf-8"?>
<!-- Generator: Adobe Illustrator 24.1.3, SVG Export Plug-In . SVG Version: 6.00 Build 0)  -->
<svg version="1.1" id="Layer_1" xmlns="http://www.w3.org/2000/svg" xmlns:xlink="http://www.w3.org/1999/xlink" x="0px" y="0px"
	 viewBox="0 0 2251 2250" style="enable-background:new 0 0 2251 2250;" xml:space="preserve">
<style type="text/css">
	.st0{fill:#FFFFFF;}
</style>
<g transform="translate(0.000000,2250.000000) scale(0.100000,-0.100000)">
	<path class="st0" d="M3340,16265c0-12-1958-10029-2015-10308c-36-175-65-329-65-343v-24l7998,3c7411,2,8004,4,8097,19
		c174,29,296,58,435,105c688,228,1242,766,1454,1413c86,262,111,449,103,750c-10,349-67,637-188,947l-40,102l1085,3664
		c598,2015,1086,3667,1086,3670c0,4-4039,7-8975,7S3340,16268,3340,16265z M10990,15156c0-8-92-471-205-1028
		c-113-558-205-1017-205-1021s-882-7-1959-7H6662l-5-22c-15-63-177-903-177-919c0-19,38-19,1715-19c943,0,1715-3,1715-8
		c0-4-88-446-195-982s-195-976-195-977c0-2-777-4-1727-5l-1726-3l-103-525c-57-289-104-528-104-532c0-5,917-9,2038-10l2039-3
		l-197-975c-109-536-203-1001-209-1032l-12-58H6139c-1858,0-3379,3-3379,6c0,14,1622,8119,1626,8126c3,5,1490,8,3305,8
		C10542,15170,10990,15168,10990,15156z M14940,15152c0-14-1598-8019-1615-8089l-5-23h-1369h-1368l808,4043
		c445,2223,811,4052,814,4065l5,22h1365C14869,15170,14940,15169,14940,15152z M19000,15163c0-5-341-1133-758-2508l-758-2500
		l-1047-3l-1046-2l5,32c2,18,108,1124,234,2458s232,2449,235,2478l6,52h1565C18296,15170,19000,15167,19000,15163z M16351,9669
		c480-49,867-279,1090-651c215-358,208-880-17-1295c-160-295-459-556-787-688c-213-86-428-119-712-112c-217,5-343,26-507,83
		c-449,156-780,521-865,953c-23,118-22,371,1,506c81,457,368,830,806,1046C15637,9648,15998,9706,16351,9669z"/>
</g>
</svg>
