<?xml version="1.0" encoding="utf-8"?>
<!-- Generator: Adobe Illustrator 26.0.0, SVG Export Plug-In . SVG Version: 6.00 Build 0)  -->
<svg version="1.1" id="Capa_1" xmlns="http://www.w3.org/2000/svg" xmlns:xlink="http://www.w3.org/1999/xlink" x="0px" y="0px"
	 viewBox="0 0 85 63" style="enable-background:new 0 0 85 63;" xml:space="preserve">
<style type="text/css">
	.st0{fill:#FFFFFF;}
</style>
<g transform="translate(0.000000,2250.000000) scale(0.100000,-0.100000)">
	<path class="st0" d="M111.5,22482.1c-0.3-1.3-18.7-95.3-40.9-208.9c-22.2-113.5-48.3-247-58-296.5s-17.6-90.2-17.6-90.6
		c0-0.5,10.6-0.6,59.5-0.4c53,0.1,59.9,0.2,63.9,0.9c3.9,0.7,12.8,2.7,15,3.4c0.7,0.2,0.8,0.1,0.5-1.3c-0.1-0.8-0.4-1.9-0.5-2.3
		c-0.2-0.8,5-0.8,105.5-0.8h105.7l6.2,11.1l6.2,11.1h5.6h5.7l1.3-7.3c0.7-4,1.6-9,2-11.1l0.7-3.9h66.5c36.6,0,66.5,0.1,66.5,0.2
		c0,0.7,2.4,12.7,2.7,13.4c0.2,0.6,1.3-0.9,4.6-6.4l4.3-7.2l75.7,0.2c83.2,0.1,77.5,0,90.1,3c33.7,8,59.6,31,70.1,62.4
		c3.7,11.1,5.3,21.7,5.3,34.4c0,19.1-4.9,34.8-15,48.5c-2.4,3.3-9.3,10.4-12.7,13.2l-1.5,1.3l3.4,3.8c17.9,19.7,27.9,40.6,32,66.4
		c0.9,5.6,1,8.4,1,19.7c0,11.5-0.1,14-1,19c-1.4,8-3.5,15.8-5.8,21.7c-1.1,2.7-1.9,5.5-1.9,6.1c0,0.6,19.9,68.2,44.2,150
		c24.3,81.9,44.1,148.9,44.1,149c0,0.1-164.9,0.2-366.5,0.2H112L111.5,22482.1z M424.2,22439.1c0-0.2-3.8-19-8.4-41.7
		c-4.6-22.7-8.4-41.4-8.4-41.6c0-0.2-36-0.4-80-0.4h-80l-0.5-2.4c-2.6-12.8-7-36.1-7-36.5s16.1-0.6,70.1-0.6
		c38.6,0,70.1-0.1,70.1-0.3c0-0.2-3.6-18.3-7.9-40.1l-8-39.8h-70.4h-70.5l-0.2-1c-0.8-3.8-8.1-41.7-8.1-42.3c0-0.7,5.9-0.8,83.1-0.8
		c45.7,0,83.1-0.2,83.1-0.4s-3.8-18.9-8.4-41.6c-4.6-22.7-8.4-41.4-8.4-41.6c0-0.2-62-0.4-137.8-0.4c-75.8,0-137.8,0.1-137.8,0.4
		c0,0.5,65.9,330.1,66.1,330.8c0.2,0.4,27.5,0.6,134.8,0.6C363.6,22439.5,424.2,22439.3,424.2,22439.1z M585.4,22438.5
		c-0.3-1.1-66.1-330.4-66.1-330.6c0-0.1-25.1-0.1-55.7-0.1s-55.7,0-55.7,0.1c0,0.2,65.8,329.5,66.1,330.6l0.2,1H530h55.7
		L585.4,22438.5z M750.6,22437.6c-0.4-1.1-13.6-44.8-29.5-97.1c-15.9-52.3-29.6-97.5-30.4-100.3l-1.6-5.2h-42.5h-42.5l0.3,2
		c0.1,1.1,4.4,46.1,9.5,100.1s9.4,99.1,9.6,100.4l0.3,2.2h63.7h63.8L750.6,22437.6z M650.4,22214.1c11.3-2.5,20.3-7.1,28.2-14.4
		c10-9.4,14.6-19.4,15.1-33.3c0.3-8.1-0.5-14.1-2.6-20.7c-6.8-20.3-25.3-36.5-47-40.9c-23.1-4.8-45.6,0.9-59.9,15.3
		c-11.1,11.1-16,24.6-14.6,40.5c1.3,14.8,6.7,26.4,16.9,36.4c8.8,8.7,20,14.6,32.6,17.1c6.5,1.3,6.8,1.3,17.5,1.2
		C644.1,22215.1,647.1,22214.9,650.4,22214.1z M134.4,22040.3c18-2.7,28.3-10.5,30.7-23.6c2-10.5-2.2-22-10.6-29.1
		c-2.7-2.3-9.5-6.5-10.5-6.5c-1.3,0-0.5-0.9,2.6-2.6c9.1-5.1,14.1-14.4,13.4-24.9c-1.4-19.9-15.1-31.6-42.6-36.4
		c-3.7-0.6-10.2-0.7-46-0.9l-41.7-0.2l0.3,1.3c0.1,0.7,5.8,28.8,12.5,62.5l12.2,61.1h37.6C123.2,22041,130.6,22040.8,134.4,22040.3z
		 M266,22039.7c12.2-2.7,21.2-7.7,27.2-15.2c10.9-13.5,10.5-36.6-0.8-52.9c-5.1-7.4-14.2-14.5-23-18c-1.1-0.4-2-0.9-2-1.2
		c0-0.2,4.6-8.4,10.2-18.1c5.6-9.8,10.2-17.9,10.2-18c0-0.1-9.7-0.2-21.5-0.2h-21.5l-8.8,15.7l-8.8,15.6h-5.5h-5.5l-3.2-15.5
		c-1.7-8.5-3.1-15.6-3.2-15.6c0-0.1-9.4-0.1-20.9-0.1c-19.7,0-20.9,0-20.6,0.8c0.1,0.4,5.7,28.2,12.3,61.6
		c6.7,33.5,12.2,61.2,12.3,61.6c0.2,0.8,1.9,0.8,34.4,0.7C259.9,22040.7,261.8,22040.6,266,22039.7z M423.7,21979.3
		c8-33.9,14.7-61.9,14.8-62.4c0.2-0.7-0.9-0.8-20.6-0.7l-20.8,0.1l-0.6,2.8c-0.3,1.5-1.2,6.4-2,10.8l-1.5,8h-24.2h-24.2l-6.2-10.9
		l-6.3-10.9h-21.9h-21.9l0.8,1.3c0.4,0.7,18.3,28.8,39.7,62.4l38.9,61.1h20.7h20.7L423.7,21979.3z M523.1,22012.5
		c9.6-15.6,17.7-28.7,17.9-29.1c0.3-0.4,0.6-0.6,0.7-0.4c0.1,0.1,2.8,13.2,5.9,29l5.7,28.7l20.3,0.1c16.1,0.1,20.3,0,20.3-0.5
		c0-0.3-5.6-28.4-12.3-62.4l-12.4-61.8H552l-17.2,0l-16.6,27c-20.6,33.5-19.3,31.6-19.6,31.3c-0.1-0.2-11.8-57.6-11.8-58.2
		c0-0.1-9.1-0.1-20.4-0.1h-20.3l12,60c6.6,32.9,12.2,61.1,12.5,62.4l0.5,2.4h17.3h17.3L523.1,22012.5z M685.4,22040.2
		c33.7-4.7,52.2-26.4,49.6-58.1c-0.9-10.7-3.1-18.7-7.4-27.4c-10.9-21.6-33.2-35.4-61.5-38c-5.9-0.6-75.9-0.7-75.9-0.1
		c0,0.4,24.6,123.1,24.8,123.9C615.4,22041.3,678.5,22041.2,685.4,22040.2z"/>
	<path class="st0" d="M88.1,22003.5c-0.9-4.8-1.8-9.1-1.9-9.5c-0.2-0.8,0.6-0.8,12.9-0.8c14.7,0,16.7,0.3,19.6,2.9
		c2.5,2.1,3.2,3.9,3.2,7.7c0,4-0.7,5.4-4.2,7.1c-2.2,1.2-2.5,1.2-15.1,1.3l-12.8,0.2L88.1,22003.5z"/>
	<path class="st0" d="M78.6,21955.7c-1-5.3-1.9-9.8-1.9-10c0-0.2,7.1-0.4,15.7-0.4c16.9,0,18.3,0.2,22,2.8c2.8,1.9,3.8,3.9,3.9,7.8
		c0.2,4.5-0.7,6.3-4.1,8.1l-2.4,1.3H96.1H80.5L78.6,21955.7z"/>
	<path class="st0" d="M228.2,22008.2c-0.1-0.5-1.4-6.8-2.9-14.1c-1.4-7.3-2.7-13.6-2.9-14.1c-0.2-0.8,0.3-0.8,11.8-0.7
		c13.6,0.2,15.3,0.6,19.3,4.2c3.3,2.9,4.6,5.8,4.8,10.9c0.3,5.6-0.4,8-2.9,10.6c-3.2,3.2-5,3.6-16.8,3.8
		C229.1,22009,228.5,22009,228.2,22008.2z"/>
	<path class="st0" d="M380,21999.6c-1.2-1.8-18-31.1-18-31.3c0-0.1,5.7-0.2,12.5-0.2c6.9,0,12.5,0.1,12.5,0.3
		c0,0.6-6.1,31.9-6.2,32.1C380.7,22000.6,380.3,22000.2,380,21999.6z"/>
	<path class="st0" d="M644.6,21979.6c-3.2-15.9-5.8-29.4-5.9-29.9l-0.2-1.1h11.5c6.4,0,13,0.2,14.8,0.5c15.7,2.3,26,13.5,28.1,30.9
		c1.6,12.9-2.5,21.9-11.6,26c-4.5,2-7.7,2.5-19.7,2.5h-11.1L644.6,21979.6z"/>
</g>
</svg>
