<?xml version="1.0" encoding="utf-8"?>
<!-- Generator: Adobe Illustrator 26.0.0, SVG Export Plug-In . SVG Version: 6.00 Build 0)  -->
<svg version="1.1" id="Capa_1" xmlns="http://www.w3.org/2000/svg" xmlns:xlink="http://www.w3.org/1999/xlink" x="0px" y="0px"
	 viewBox="0 0 85 63" style="enable-background:new 0 0 85 63;" xml:space="preserve">
<style type="text/css">
	.st0{fill:#F9F9F9;}
</style>
<g>
	<path class="st0" d="M58.5,29.2v3h6.7l0,0h3.8v-3H58.5z M63.3,35.5c-0.9,0.8-2.2,1.2-3.6,1.2c-1.2,0-2.3-0.3-3.2-0.8
		s-1.6-1.3-2.1-2.2c-0.5-1-0.8-2.1-0.8-3.4s0.3-2.4,0.8-3.3c0.5-1,1.2-1.7,2.1-2.2c0.9-0.5,1.9-0.8,3.1-0.8c1,0,1.9,0.2,2.7,0.6
		s1.4,1,1.8,1.9h4.5c-0.6-1.9-1.7-3.4-3.3-4.5c-1.6-1.1-3.5-1.6-5.7-1.6c-1.9,0-3.5,0.4-5.1,1.3c-1.5,0.8-2.7,2-3.6,3.5
		c-0.9,1.5-1.3,3.2-1.3,5.1s0.4,3.6,1.3,5.1c0.9,1.5,2.1,2.7,3.6,3.5s3.2,1.3,5.1,1.3c1.7,0,3.2-0.3,4.5-1c1.3-0.7,2.4-1.6,3.3-2.8
		c0.3-0.4,0.6-0.9,0.9-1.4h-4.4C63.7,35.2,63.5,35.4,63.3,35.5z"/>
	<path class="st0" d="M37.1,48.5c-0.3,0-0.5-0.2-0.5-0.5v-2.1h34.2c0.1-0.3,0.3-0.6,0.4-0.9H43.7c-0.5,0-0.9-0.4-0.9-0.9V15.5
		c0-0.5,0.4-0.9,0.9-0.9h25.6c-5.5-8.4-15-13.9-25.8-13.9c-17,0-30.8,13.8-30.8,30.8s13.8,30.8,30.8,30.8c10.8,0,20.3-5.5,25.8-13.9
		H37.1V48.5z"/>
</g>
</svg>
