<?xml version="1.0" encoding="utf-8"?>
<!-- Generator: Adobe Illustrator 26.0.0, SVG Export Plug-In . SVG Version: 6.00 Build 0)  -->
<svg version="1.1" id="Capa_1" xmlns="http://www.w3.org/2000/svg" xmlns:xlink="http://www.w3.org/1999/xlink" x="0px" y="0px"
	 viewBox="0 0 85 63" style="enable-background:new 0 0 85 63;" xml:space="preserve">
<style type="text/css">
	.st0{fill:#010101;}
	.st1{fill:#FEFEFE;}
	.st2{fill:#FDEB00;}
	.st3{fill:#040300;}
	.st4{fill:#070600;}
	.st5{fill:#040400;}
	.st6{fill:#030200;}
</style>
<g>
	<path class="st0" d="M72.9,45.1c0.1,0.1,0.1,0.1,0.1,0.1c1.7,1.4,2.6,3.1,2.8,5.3c0.2,2.5-0.3,4.8-1.8,6.8c-1.5,2-3.5,3.3-5.9,3.8
		c-0.8,0.2-1.7,0.3-2.6,0.3c-4.5,0-8.9,0-13.4,0c-0.1,0-0.2,0-0.3,0c-0.3-0.5-0.6-1-0.9-1.5c-0.1,0.6-0.2,1-0.3,1.5
		c-4.4,0-8.8,0-13.3,0c-0.1-0.7-0.3-1.4-0.4-2.2c-0.4,0-0.7,0-1.2,0c-0.4,0.7-0.8,1.4-1.2,2.2c-7,0-14,0-21.1,0c0-0.1,0-0.3,0-0.5
		c-0.3,0.1-0.5,0.2-0.8,0.2c-0.9,0.1-1.7,0.3-2.6,0.3c-3.4,0-6.8,0-10.3,0c-0.1,0-0.2,0-0.3,0c3.9-20,7.8-39.9,11.7-59.9
		c24.4,0,48.8,0,73.3,0c0,0.1,0,0.2-0.1,0.3c-2.6,8.9-5.3,17.9-7.9,26.8c-0.2,0.8-0.5,1.7-0.7,2.5c-0.1,0.2-0.1,0.4,0,0.6
		c1.7,4.3,0.8,9.6-2.6,13C73.1,44.9,73,45,72.9,45.1z M36.5,26.4c0.5-2.7,1.1-5.4,1.6-8.1c-0.5,0-1,0-1.4,0c-0.5,0-1,0-1.4,0
		c-0.5,0-0.9,0-1.4,0c-0.5,0-0.9,0-1.4,0c-0.5,0-0.9,0-1.4,0c-0.5,0-1,0-1.4,0c-0.5,0-0.9,0-1.4,0s-0.9,0-1.4,0c-0.5,0-1,0-1.4,0
		c-0.5,0-0.9,0-1.4,0c0.3-1.3,0.5-2.5,0.7-3.8c5.3,0,10.7,0,16,0c0.6-2.8,1.1-5.7,1.7-8.5c-9,0-18,0-27,0
		c-1.1,5.6-2.2,11.1-3.3,16.6c-1.1,5.2-3.3,16.3-3.2,16.6c9.2,0,18.3,0,27.6,0c0.6-2.8,1.1-5.6,1.7-8.5c-5.6,0-11.1,0-16.7,0
		c0.3-1.5,0.6-2.9,0.8-4.3C27.1,26.4,31.8,26.4,36.5,26.4z M47.4,5.9c-1.1,5.6-2.2,11.1-3.3,16.7c-1.1,5.2-3.3,16.3-3.2,16.6
		c3.7,0,7.4,0,11.1,0c2.2-11.1,4.4-22.2,6.7-33.3C54.9,5.9,51.2,5.9,47.4,5.9z M19.3,45.8c-0.8,4.2-1.7,8.4-2.5,12.6
		c1.4,0,2.8,0,4.2,0c0.2-1,0.4-2.1,0.6-3.1c0.4,0,0.7,0,1,0c0.6,1,1.2,2.1,1.8,3.1c2.9,0,5.9,0,8.8,0c0.4-0.6,0.7-1.2,1.1-1.8
		c0.1-0.2,0.3-0.3,0.5-0.3c1.4,0,2.7,0,4.1,0c0.1,0,0.2,0,0.4,0c0.1,0.7,0.3,1.4,0.4,2.1c1.4,0,2.8,0,4.2,0c-1-4.2-2-8.4-3-12.5
		c-0.2,0-0.3,0-0.5,0c-1.1,0-2.1,0-3.2,0c-0.4,0-0.5,0.1-0.7,0.4c-2.5,3.9-4.9,7.8-7.4,11.6c-0.1,0.1-0.2,0.3-0.3,0.5
		c-0.7-1.2-1.4-2.4-2-3.5c0.1-0.1,0.2-0.1,0.3-0.2c2.1-0.9,3.1-2.7,3-4.9c-0.1-1.4-0.7-2.5-2-3.1c-0.7-0.4-1.5-0.6-2.3-0.6
		c-1,0-2-0.1-3-0.1C21.7,45.8,20.5,45.8,19.3,45.8z M60.4,26.4c2.9,0,5.7,0,8.6,0c2.1-6.8,4.1-13.7,6.2-20.5c-4.3,0-8.6,0-12.8,0
		C61.7,12.8,61.1,19.6,60.4,26.4z M2.9,58.4c0.2,0,0.4,0,0.5,0c1.8,0,3.5,0,5.3,0c0.8,0,1.5,0,2.3,0c1-0.1,2-0.3,3-0.8
		c1.2-0.6,1.9-1.5,2-2.9c0.1-1.1-0.3-1.9-1.1-2.5c-0.1-0.1-0.3-0.2-0.5-0.3c0.2-0.1,0.3-0.2,0.4-0.2c0.5-0.3,0.9-0.6,1.2-1.1
		c0.9-1.3,0.9-3.6-1.3-4.4c-0.2-0.1-0.3-0.1-0.5-0.2c-0.7-0.2-1.4-0.3-2.2-0.3c-2.1,0-4.2,0-6.3,0c-0.1,0-0.2,0-0.4,0
		C4.6,50,3.8,54.2,2.9,58.4z M49.9,52.6c0.1,0.2,0.2,0.4,0.3,0.5c1,1.7,2,3.3,3.1,5c0.2,0.3,0.3,0.3,0.6,0.3c0.9,0,1.8,0,2.7,0
		c0.1,0,0.3,0,0.4,0c0.8-4.2,1.7-8.4,2.5-12.5c-1.4,0-2.8,0-4.1,0c-0.4,1.9-0.8,3.8-1.2,5.8c-1.2-2-2.4-3.9-3.6-5.8
		c-1.2,0-2.3,0-3.5,0c-0.8,4.2-1.7,8.3-2.5,12.5c1.4,0,2.8,0,4.1,0C49.1,56.5,49.5,54.6,49.9,52.6z M59,58.4c0.2,0,0.3,0,0.4,0
		c2.2,0,4.3,0,6.5,0c0.6,0,1.2-0.1,1.8-0.2c3.8-0.7,6.2-3.9,5.8-7.8c-0.1-1.3-0.8-2.5-1.8-3.3c-0.6-0.4-1.2-0.7-1.9-1
		c-0.9-0.3-1.8-0.3-2.6-0.3c-1.7,0-3.5,0-5.2,0c-0.1,0-0.2,0-0.4,0C60.7,50,59.9,54.2,59,58.4z M62.8,39.7c2,0,3.6-0.6,5-2
		c1.4-1.4,1.9-3.2,1.6-5.1c-0.3-1.9-1.5-3.1-3.2-3.7c-1.4-0.6-2.9-0.6-4.4-0.3C59.3,29,57.3,31,57,33.6c-0.3,2.3,0.7,4.3,2.7,5.4
		C60.7,39.5,61.7,39.7,62.8,39.7z"/>
	<path class="st1" d="M36.5,26.4c-4.7,0-9.4,0-14.1,0c-0.3,1.4-0.6,2.8-0.8,4.3c5.6,0,11.1,0,16.7,0c-0.6,2.9-1.2,5.7-1.7,8.5
		c-9.2,0-18.4,0-27.6,0c0-0.3,2.1-11.4,3.2-16.6c1.1-5.5,2.2-11.1,3.3-16.6c9,0,18,0,27,0c-0.6,2.8-1.1,5.6-1.7,8.5
		c-5.3,0-10.7,0-16,0c-0.2,1.3-0.5,2.5-0.7,3.8c0.5,0,0.9,0,1.4,0c0.5,0,1,0,1.4,0c0.5,0,0.9,0,1.4,0s0.9,0,1.4,0c0.5,0,1,0,1.4,0
		c0.5,0,0.9,0,1.4,0c0.5,0,0.9,0,1.4,0c0.5,0,0.9,0,1.4,0c0.5,0,1,0,1.4,0c0.5,0,0.9,0,1.4,0C37.6,21,37,23.7,36.5,26.4z"/>
	<path class="st1" d="M47.4,5.9c3.8,0,7.5,0,11.2,0C56.4,17,54.2,28.1,52,39.2c-3.7,0-7.4,0-11.1,0c0-0.3,2.2-11.4,3.2-16.6
		C45.2,17,46.3,11.5,47.4,5.9z"/>
	<path class="st2" d="M19.3,45.8c1.2,0,2.4,0,3.6,0c1,0,2,0,3,0.1c0.8,0,1.6,0.2,2.3,0.6c1.2,0.7,1.9,1.7,2,3.1c0.1,2.3-1,4-3,4.9
		c-0.1,0-0.2,0.1-0.3,0.2c0.7,1.2,1.3,2.3,2,3.5c0.1-0.2,0.2-0.3,0.3-0.5c2.5-3.9,4.9-7.7,7.4-11.6c0.2-0.3,0.4-0.4,0.7-0.4
		c1.1,0,2.1,0,3.2,0c0.2,0,0.3,0,0.5,0c1,4.2,2,8.3,3,12.5c-1.4,0-2.8,0-4.2,0c-0.1-0.7-0.3-1.4-0.4-2.1c-0.1,0-0.2,0-0.4,0
		c-1.4,0-2.7,0-4.1,0c-0.3,0-0.4,0.1-0.5,0.3c-0.3,0.6-0.7,1.2-1.1,1.8c-3,0-5.9,0-8.8,0c-0.6-1-1.2-2.1-1.8-3.1c-0.3,0-0.7,0-1,0
		c-0.2,1-0.4,2.1-0.6,3.1c-1.4,0-2.8,0-4.2,0C17.6,54.2,18.5,50,19.3,45.8z M22.9,49.1c-0.2,1-0.4,1.9-0.6,2.9c0.8,0,1.5,0,2.3,0
		c0.2,0,0.3-0.1,0.5-0.2c0.6-0.3,0.9-1,0.8-1.8c-0.1-0.6-0.5-0.9-1.3-0.9C24,49.1,23.5,49.1,22.9,49.1z M36.3,53.1
		c0.8,0,1.6,0,2.4,0c-0.2-1-0.4-2-0.6-3c0,0-0.1,0-0.1,0C37.5,51.1,36.9,52.1,36.3,53.1z"/>
	<path class="st1" d="M60.4,26.4c0.7-6.9,1.3-13.7,1.9-20.5c4.3,0,8.5,0,12.8,0c-2.1,6.9-4.1,13.7-6.2,20.5
		C66.1,26.4,63.3,26.4,60.4,26.4z"/>
	<path class="st2" d="M2.9,58.4c0.8-4.2,1.7-8.4,2.5-12.6c0.1,0,0.3,0,0.4,0c2.1,0,4.2,0,6.3,0c0.7,0,1.4,0.1,2.2,0.3
		c0.2,0,0.4,0.1,0.5,0.2c2.2,0.8,2.2,3.1,1.3,4.4c-0.3,0.4-0.7,0.8-1.2,1.1c-0.1,0.1-0.3,0.1-0.4,0.2c0.2,0.1,0.3,0.2,0.5,0.3
		c0.9,0.6,1.2,1.5,1.1,2.5c-0.1,1.4-0.8,2.3-2,2.9c-0.9,0.5-1.9,0.7-3,0.8c-0.8,0-1.5,0-2.3,0c-1.8,0-3.5,0-5.3,0
		C3.3,58.4,3.1,58.4,2.9,58.4z M7.7,55.4c1,0,2,0,2.9,0c0.3,0,0.6-0.1,0.8-0.3c0.4-0.2,0.4-0.6,0.4-1c-0.1-0.3-0.4-0.5-0.8-0.6
		c-0.1,0-0.2,0-0.4,0c-0.6,0-1.2,0-1.8,0c-0.2,0-0.5,0-0.7,0C8,54.1,7.8,54.7,7.7,55.4z M8.7,50.6c0.9,0,1.8,0.1,2.7-0.1
		c0.1,0,0.3-0.1,0.4-0.2c0.3-0.2,0.5-0.6,0.4-1c-0.1-0.3-0.3-0.6-0.8-0.6c-0.8,0-1.6,0-2.4,0C8.9,49.4,8.8,50,8.7,50.6z"/>
	<path class="st2" d="M49.9,52.6c-0.4,2-0.8,3.9-1.2,5.8c-1.4,0-2.8,0-4.1,0c0.8-4.2,1.7-8.4,2.5-12.5c1.2,0,2.3,0,3.5,0
		c1.2,1.9,2.4,3.8,3.6,5.8c0.4-2,0.8-3.9,1.2-5.8c1.4,0,2.7,0,4.1,0c-0.8,4.2-1.7,8.3-2.5,12.5c-0.1,0-0.3,0-0.4,0
		c-0.9,0-1.8,0-2.7,0c-0.3,0-0.5-0.1-0.6-0.3c-1-1.7-2-3.3-3.1-5C50.1,53,50,52.8,49.9,52.6z"/>
	<path class="st2" d="M59,58.4c0.8-4.2,1.7-8.4,2.5-12.6c0.2,0,0.3,0,0.4,0c1.7,0,3.5,0,5.2,0c0.9,0,1.8,0.1,2.6,0.3
		c0.7,0.2,1.4,0.5,1.9,1c1.1,0.8,1.7,1.9,1.8,3.3c0.4,3.9-1.9,7.1-5.8,7.8c-0.6,0.1-1.2,0.2-1.8,0.2c-2.2,0-4.3,0-6.5,0
		C59.3,58.4,59.2,58.4,59,58.4z M63.9,55c0.9,0,1.7,0.1,2.6,0c1.1-0.1,1.8-0.7,2.4-1.6c0.4-0.7,0.5-1.4,0.5-2.1c0-1.2-0.7-2-1.9-2.1
		c-0.7-0.1-1.4-0.1-2-0.1c-0.1,0-0.2,0-0.3,0C64.7,51.1,64.3,53.1,63.9,55z"/>
	<path class="st1" d="M62.8,39.7c-1.1,0-2.1-0.2-3.1-0.7c-2-1.1-3-3.1-2.7-5.4c0.3-2.6,2.3-4.5,4.8-5.1c1.5-0.3,3-0.3,4.4,0.3
		c1.7,0.7,2.9,1.9,3.2,3.7c0.3,2-0.2,3.7-1.6,5.1C66.4,39.1,64.8,39.7,62.8,39.7z"/>
	<path class="st3" d="M22.9,49.1c0.6,0,1.1,0,1.6,0c0.8,0,1.2,0.3,1.3,0.9c0.2,0.7-0.1,1.4-0.8,1.8c-0.1,0.1-0.3,0.2-0.5,0.2
		c-0.7,0-1.5,0-2.3,0C22.5,51,22.7,50.1,22.9,49.1z"/>
	<path class="st4" d="M36.3,53.1c0.6-1,1.2-2,1.7-3c0,0,0.1,0,0.1,0c0.2,1,0.4,2,0.6,3C37.9,53.1,37.1,53.1,36.3,53.1z"/>
	<path class="st5" d="M7.7,55.4c0.1-0.7,0.3-1.3,0.4-1.9c0.3,0,0.5,0,0.7,0c0.6,0,1.2,0,1.8,0c0.1,0,0.2,0,0.4,0
		c0.4,0,0.7,0.3,0.8,0.6c0.1,0.4,0,0.8-0.4,1c-0.2,0.2-0.5,0.3-0.8,0.3C9.7,55.4,8.7,55.4,7.7,55.4z"/>
	<path class="st3" d="M8.7,50.6C8.8,50,8.9,49.4,9,48.8c0.8,0,1.6,0,2.4,0c0.4,0,0.7,0.3,0.8,0.6c0.1,0.4-0.1,0.8-0.4,1
		c-0.1,0.1-0.2,0.1-0.4,0.2C10.5,50.7,9.6,50.6,8.7,50.6z"/>
	<path class="st6" d="M63.9,55c0.4-2,0.8-3.9,1.2-5.9c0.1,0,0.2,0,0.3,0c0.7,0,1.4,0,2,0.1c1.2,0.1,1.9,0.9,1.9,2.1
		c0,0.7-0.1,1.4-0.5,2.1c-0.5,0.9-1.3,1.5-2.4,1.6C65.7,55.1,64.8,55,63.9,55z"/>
</g>
</svg>
